{
    "patcher": {
        "fileversion": 1,
        "appversion": {
            "major": 9,
            "minor": 1,
            "revision": 1,
            "architecture": "x64",
            "modernui": 1
        },
        "classnamespace": "box",
        "rect": [ 34.0, 95.0, 955.0, 663.0 ],
        "boxes": [
            {
                "box": {
                    "attr": "size",
                    "id": "obj-126",
                    "maxclass": "attrui",
                    "numinlets": 1,
                    "numoutlets": 1,
                    "outlettype": [ "" ],
                    "parameter_enable": 0,
                    "patching_rect": [ 705.0, 810.0, 150.0, 22.0 ],
                    "presentation": 1,
                    "presentation_rect": [ 795.0, 570.0, 150.0, 22.0 ]
                }
            },
            {
                "box": {
                    "attr": "damping",
                    "id": "obj-124",
                    "maxclass": "attrui",
                    "numinlets": 1,
                    "numoutlets": 1,
                    "outlettype": [ "" ],
                    "parameter_enable": 0,
                    "patching_rect": [ 495.0, 810.0, 150.0, 22.0 ],
                    "presentation": 1,
                    "presentation_rect": [ 630.0, 570.0, 150.0, 22.0 ]
                }
            },
            {
                "box": {
                    "attr": "decay",
                    "id": "obj-123",
                    "maxclass": "attrui",
                    "numinlets": 1,
                    "numoutlets": 1,
                    "outlettype": [ "" ],
                    "parameter_enable": 0,
                    "patching_rect": [ 345.0, 765.0, 150.0, 22.0 ],
                    "presentation": 1,
                    "presentation_rect": [ 285.0, 570.0, 150.0, 22.0 ]
                }
            },
            {
                "box": {
                    "id": "obj-122",
                    "maxclass": "spectroscope~",
                    "numinlets": 2,
                    "numoutlets": 1,
                    "outlettype": [ "" ],
                    "patching_rect": [ 1335.0, 675.0, 300.0, 100.0 ],
                    "presentation": 1,
                    "presentation_rect": [ 630.666685461998, 450.66668009757996, 314.0, 104.0 ]
                }
            },
            {
                "box": {
                    "id": "obj-121",
                    "maxclass": "spectroscope~",
                    "numinlets": 2,
                    "numoutlets": 1,
                    "outlettype": [ "" ],
                    "patching_rect": [ 465.0, 690.0, 300.0, 100.0 ],
                    "presentation": 1,
                    "presentation_rect": [ 285.3333418369293, 450.66668009757996, 315.0, 104.0 ]
                }
            },
            {
                "box": {
                    "id": "obj-62",
                    "maxclass": "number",
                    "numinlets": 1,
                    "numoutlets": 2,
                    "outlettype": [ "", "bang" ],
                    "parameter_enable": 0,
                    "patching_rect": [ 1230.0, 90.0, 50.0, 22.0 ]
                }
            },
            {
                "box": {
                    "id": "obj-63",
                    "maxclass": "newobj",
                    "numinlets": 2,
                    "numoutlets": 1,
                    "outlettype": [ "" ],
                    "patching_rect": [ 1810.0, 62.0, 63.0, 22.0 ],
                    "text": "pack i 500"
                }
            },
            {
                "box": {
                    "id": "obj-64",
                    "maxclass": "newobj",
                    "numinlets": 2,
                    "numoutlets": 1,
                    "outlettype": [ "" ],
                    "patching_rect": [ 2274.0, 78.0, 63.0, 22.0 ],
                    "text": "pack i 500"
                }
            },
            {
                "box": {
                    "id": "obj-65",
                    "maxclass": "newobj",
                    "numinlets": 3,
                    "numoutlets": 2,
                    "outlettype": [ "", "bang" ],
                    "patching_rect": [ 2274.0, 122.0, 47.0, 22.0 ],
                    "text": "line 0 5"
                }
            },
            {
                "box": {
                    "id": "obj-66",
                    "maxclass": "newobj",
                    "numinlets": 2,
                    "numoutlets": 1,
                    "outlettype": [ "" ],
                    "patching_rect": [ 2154.0, 78.0, 63.0, 22.0 ],
                    "text": "pack i 500"
                }
            },
            {
                "box": {
                    "id": "obj-67",
                    "maxclass": "newobj",
                    "numinlets": 3,
                    "numoutlets": 2,
                    "outlettype": [ "", "bang" ],
                    "patching_rect": [ 2154.0, 122.0, 47.0, 22.0 ],
                    "text": "line 0 5"
                }
            },
            {
                "box": {
                    "id": "obj-68",
                    "maxclass": "newobj",
                    "numinlets": 2,
                    "numoutlets": 1,
                    "outlettype": [ "" ],
                    "patching_rect": [ 2020.0, 78.0, 63.0, 22.0 ],
                    "text": "pack i 500"
                }
            },
            {
                "box": {
                    "id": "obj-69",
                    "maxclass": "newobj",
                    "numinlets": 3,
                    "numoutlets": 2,
                    "outlettype": [ "", "bang" ],
                    "patching_rect": [ 2020.0, 122.0, 47.0, 22.0 ],
                    "text": "line 0 5"
                }
            },
            {
                "box": {
                    "id": "obj-70",
                    "maxclass": "newobj",
                    "numinlets": 3,
                    "numoutlets": 2,
                    "outlettype": [ "", "bang" ],
                    "patching_rect": [ 1794.0, 108.0, 47.0, 22.0 ],
                    "text": "line 0 5"
                }
            },
            {
                "box": {
                    "id": "obj-73",
                    "maxclass": "newobj",
                    "numinlets": 6,
                    "numoutlets": 1,
                    "outlettype": [ "" ],
                    "patching_rect": [ 2470.0, 332.0, 114.0, 22.0 ],
                    "text": "scale 0 127 -1.5 1.5"
                }
            },
            {
                "box": {
                    "id": "obj-74",
                    "maxclass": "newobj",
                    "numinlets": 6,
                    "numoutlets": 1,
                    "outlettype": [ "" ],
                    "patching_rect": [ 2350.0, 332.0, 114.0, 22.0 ],
                    "text": "scale 0 127 -1.5 1.5"
                }
            },
            {
                "box": {
                    "color": [ 1.0, 1.0, 1.0, 1.0 ],
                    "elementcolor": [ 0.7215686274509804, 0.6784313725490196, 0.6784313725490196, 1.0 ],
                    "id": "obj-75",
                    "maxclass": "pictslider",
                    "numinlets": 2,
                    "numoutlets": 2,
                    "outlettype": [ "int", "int" ],
                    "parameter_enable": 0,
                    "patching_rect": [ 2350.0, 212.0, 100.0, 100.0 ],
                    "presentation": 1,
                    "presentation_rect": [ 795.0, 285.0, 150.0, 150.0 ]
                }
            },
            {
                "box": {
                    "id": "obj-76",
                    "maxclass": "newobj",
                    "numinlets": 6,
                    "numoutlets": 1,
                    "outlettype": [ "" ],
                    "patching_rect": [ 1944.0, 348.0, 114.0, 22.0 ],
                    "text": "scale 0 127 -1.5 1.5"
                }
            },
            {
                "box": {
                    "id": "obj-77",
                    "maxclass": "newobj",
                    "numinlets": 6,
                    "numoutlets": 1,
                    "outlettype": [ "" ],
                    "patching_rect": [ 1824.0, 348.0, 114.0, 22.0 ],
                    "text": "scale 0 127 -1.5 1.5"
                }
            },
            {
                "box": {
                    "color": [ 1.0, 1.0, 1.0, 1.0 ],
                    "elementcolor": [ 0.7215686274509804, 0.6784313725490196, 0.6784313725490196, 1.0 ],
                    "id": "obj-78",
                    "maxclass": "pictslider",
                    "numinlets": 2,
                    "numoutlets": 2,
                    "outlettype": [ "int", "int" ],
                    "parameter_enable": 0,
                    "patching_rect": [ 1824.0, 228.0, 100.0, 100.0 ],
                    "presentation": 1,
                    "presentation_rect": [ 630.0, 285.0, 150.0, 150.0 ]
                }
            },
            {
                "box": {
                    "id": "obj-79",
                    "maxclass": "message",
                    "numinlets": 2,
                    "numoutlets": 1,
                    "outlettype": [ "" ],
                    "patching_rect": [ 1620.0, 120.0, 29.5, 22.0 ],
                    "text": "1"
                }
            },
            {
                "box": {
                    "id": "obj-83",
                    "maxclass": "number",
                    "numinlets": 1,
                    "numoutlets": 2,
                    "outlettype": [ "", "bang" ],
                    "parameter_enable": 0,
                    "patching_rect": [ 2296.0, 36.0, 50.0, 22.0 ]
                }
            },
            {
                "box": {
                    "id": "obj-84",
                    "maxclass": "newobj",
                    "numinlets": 4,
                    "numoutlets": 1,
                    "outlettype": [ "int" ],
                    "patching_rect": [ 2296.0, 6.0, 117.0, 22.0 ],
                    "text": "brownian 0 127 0.01"
                }
            },
            {
                "box": {
                    "id": "obj-85",
                    "maxclass": "number",
                    "numinlets": 1,
                    "numoutlets": 2,
                    "outlettype": [ "", "bang" ],
                    "parameter_enable": 0,
                    "patching_rect": [ 2164.0, 36.0, 50.0, 22.0 ]
                }
            },
            {
                "box": {
                    "id": "obj-86",
                    "maxclass": "newobj",
                    "numinlets": 4,
                    "numoutlets": 1,
                    "outlettype": [ "int" ],
                    "patching_rect": [ 2164.0, 6.0, 117.0, 22.0 ],
                    "text": "brownian 0 127 0.01"
                }
            },
            {
                "box": {
                    "id": "obj-87",
                    "maxclass": "number",
                    "numinlets": 1,
                    "numoutlets": 2,
                    "outlettype": [ "", "bang" ],
                    "parameter_enable": 0,
                    "patching_rect": [ 2018.0, 36.0, 50.0, 22.0 ]
                }
            },
            {
                "box": {
                    "id": "obj-88",
                    "maxclass": "newobj",
                    "numinlets": 4,
                    "numoutlets": 1,
                    "outlettype": [ "int" ],
                    "patching_rect": [ 2018.0, 6.0, 117.0, 22.0 ],
                    "text": "brownian 0 127 0.01"
                }
            },
            {
                "box": {
                    "id": "obj-89",
                    "maxclass": "number",
                    "numinlets": 1,
                    "numoutlets": 2,
                    "outlettype": [ "", "bang" ],
                    "parameter_enable": 0,
                    "patching_rect": [ 1882.0, 36.0, 50.0, 22.0 ]
                }
            },
            {
                "box": {
                    "id": "obj-90",
                    "maxclass": "newobj",
                    "numinlets": 4,
                    "numoutlets": 1,
                    "outlettype": [ "int" ],
                    "patching_rect": [ 1882.0, 6.0, 117.0, 22.0 ],
                    "text": "brownian 0 127 0.03"
                }
            },
            {
                "box": {
                    "id": "obj-94",
                    "maxclass": "button",
                    "numinlets": 1,
                    "numoutlets": 1,
                    "outlettype": [ "bang" ],
                    "parameter_enable": 0,
                    "patching_rect": [ 2394.0, 122.0, 24.0, 24.0 ]
                }
            },
            {
                "box": {
                    "id": "obj-95",
                    "maxclass": "button",
                    "numinlets": 1,
                    "numoutlets": 1,
                    "outlettype": [ "bang" ],
                    "parameter_enable": 0,
                    "patching_rect": [ 1866.0, 128.0, 24.0, 24.0 ]
                }
            },
            {
                "box": {
                    "id": "obj-96",
                    "maxclass": "message",
                    "numinlets": 2,
                    "numoutlets": 1,
                    "outlettype": [ "" ],
                    "patching_rect": [ 1908.0, 166.0, 29.5, 22.0 ],
                    "text": "64"
                }
            },
            {
                "box": {
                    "id": "obj-97",
                    "maxclass": "message",
                    "numinlets": 2,
                    "numoutlets": 1,
                    "outlettype": [ "" ],
                    "patching_rect": [ 1826.0, 166.0, 29.5, 22.0 ],
                    "text": "64"
                }
            },
            {
                "box": {
                    "id": "obj-98",
                    "maxclass": "message",
                    "numinlets": 2,
                    "numoutlets": 1,
                    "outlettype": [ "" ],
                    "patching_rect": [ 2432.0, 156.0, 29.5, 22.0 ],
                    "text": "64"
                }
            },
            {
                "box": {
                    "id": "obj-99",
                    "maxclass": "message",
                    "numinlets": 2,
                    "numoutlets": 1,
                    "outlettype": [ "" ],
                    "patching_rect": [ 2350.0, 156.0, 29.5, 22.0 ],
                    "text": "64"
                }
            },
            {
                "box": {
                    "format": 6,
                    "id": "obj-101",
                    "maxclass": "flonum",
                    "numinlets": 1,
                    "numoutlets": 2,
                    "outlettype": [ "", "bang" ],
                    "parameter_enable": 0,
                    "patching_rect": [ 2106.0, 498.0, 50.0, 22.0 ]
                }
            },
            {
                "box": {
                    "format": 6,
                    "id": "obj-102",
                    "maxclass": "flonum",
                    "numinlets": 1,
                    "numoutlets": 2,
                    "outlettype": [ "", "bang" ],
                    "parameter_enable": 0,
                    "patching_rect": [ 2094.0, 388.0, 50.0, 22.0 ]
                }
            },
            {
                "box": {
                    "id": "obj-104",
                    "maxclass": "newobj",
                    "numinlets": 2,
                    "numoutlets": 1,
                    "outlettype": [ "signal" ],
                    "patching_rect": [ 2050.0, 500.0, 29.5, 22.0 ],
                    "text": "+~"
                }
            },
            {
                "box": {
                    "id": "obj-105",
                    "maxclass": "newobj",
                    "numinlets": 2,
                    "numoutlets": 1,
                    "outlettype": [ "signal" ],
                    "patching_rect": [ 2046.0, 448.0, 29.5, 22.0 ],
                    "text": "*~"
                }
            },
            {
                "box": {
                    "format": 6,
                    "id": "obj-106",
                    "maxclass": "flonum",
                    "numinlets": 1,
                    "numoutlets": 2,
                    "outlettype": [ "", "bang" ],
                    "parameter_enable": 0,
                    "patching_rect": [ 2206.0, 498.0, 50.0, 22.0 ]
                }
            },
            {
                "box": {
                    "id": "obj-107",
                    "maxclass": "newobj",
                    "numinlets": 2,
                    "numoutlets": 1,
                    "outlettype": [ "signal" ],
                    "patching_rect": [ 1990.0, 496.0, 29.5, 22.0 ],
                    "text": "+~"
                }
            },
            {
                "box": {
                    "format": 6,
                    "id": "obj-108",
                    "maxclass": "flonum",
                    "numinlets": 1,
                    "numoutlets": 2,
                    "outlettype": [ "", "bang" ],
                    "parameter_enable": 0,
                    "patching_rect": [ 2194.0, 388.0, 50.0, 22.0 ]
                }
            },
            {
                "box": {
                    "id": "obj-109",
                    "maxclass": "newobj",
                    "numinlets": 2,
                    "numoutlets": 1,
                    "outlettype": [ "signal" ],
                    "patching_rect": [ 1986.0, 444.0, 29.5, 22.0 ],
                    "text": "*~"
                }
            },
            {
                "box": {
                    "format": 6,
                    "id": "obj-110",
                    "maxclass": "flonum",
                    "numinlets": 1,
                    "numoutlets": 2,
                    "outlettype": [ "", "bang" ],
                    "parameter_enable": 0,
                    "patching_rect": [ 1826.0, 488.0, 50.0, 22.0 ]
                }
            },
            {
                "box": {
                    "format": 6,
                    "id": "obj-111",
                    "maxclass": "flonum",
                    "numinlets": 1,
                    "numoutlets": 2,
                    "outlettype": [ "", "bang" ],
                    "parameter_enable": 0,
                    "patching_rect": [ 1808.0, 402.0, 50.0, 22.0 ]
                }
            },
            {
                "box": {
                    "id": "obj-112",
                    "maxclass": "newobj",
                    "numinlets": 2,
                    "numoutlets": 1,
                    "outlettype": [ "signal" ],
                    "patching_rect": [ 1766.0, 516.0, 29.5, 22.0 ],
                    "text": "+~"
                }
            },
            {
                "box": {
                    "id": "obj-113",
                    "maxclass": "newobj",
                    "numinlets": 2,
                    "numoutlets": 1,
                    "outlettype": [ "signal" ],
                    "patching_rect": [ 1760.0, 464.0, 29.5, 22.0 ],
                    "text": "*~"
                }
            },
            {
                "box": {
                    "format": 6,
                    "id": "obj-114",
                    "maxclass": "flonum",
                    "numinlets": 1,
                    "numoutlets": 2,
                    "outlettype": [ "", "bang" ],
                    "parameter_enable": 0,
                    "patching_rect": [ 1904.0, 488.0, 50.0, 22.0 ]
                }
            },
            {
                "box": {
                    "id": "obj-115",
                    "maxclass": "newobj",
                    "numinlets": 2,
                    "numoutlets": 1,
                    "outlettype": [ "signal" ],
                    "patching_rect": [ 1706.0, 510.0, 29.5, 22.0 ],
                    "text": "+~"
                }
            },
            {
                "box": {
                    "format": 6,
                    "id": "obj-116",
                    "maxclass": "flonum",
                    "numinlets": 1,
                    "numoutlets": 2,
                    "outlettype": [ "", "bang" ],
                    "parameter_enable": 0,
                    "patching_rect": [ 1908.0, 402.0, 50.0, 22.0 ]
                }
            },
            {
                "box": {
                    "id": "obj-117",
                    "maxclass": "newobj",
                    "numinlets": 2,
                    "numoutlets": 1,
                    "outlettype": [ "signal" ],
                    "patching_rect": [ 1700.0, 458.0, 29.5, 22.0 ],
                    "text": "*~"
                }
            },
            {
                "box": {
                    "id": "obj-119",
                    "maxclass": "newobj",
                    "numinlets": 8,
                    "numoutlets": 1,
                    "outlettype": [ "signal" ],
                    "patching_rect": [ 1434.0, 606.0, 311.0, 22.0 ],
                    "text": "nn~ rings_6000000_steps_streaming_v3.ts decode 4096"
                }
            },
            {
                "box": {
                    "id": "obj-120",
                    "maxclass": "newobj",
                    "numinlets": 1,
                    "numoutlets": 8,
                    "outlettype": [ "signal", "signal", "signal", "signal", "signal", "signal", "signal", "signal" ],
                    "patching_rect": [ 1434.0, 386.0, 311.0, 22.0 ],
                    "text": "nn~ rings_6000000_steps_streaming_v3.ts encode 4096"
                }
            },
            {
                "box": {
                    "id": "obj-61",
                    "maxclass": "number",
                    "numinlets": 1,
                    "numoutlets": 2,
                    "outlettype": [ "", "bang" ],
                    "parameter_enable": 0,
                    "patching_rect": [ 1110.0, 120.0, 50.0, 22.0 ]
                }
            },
            {
                "box": {
                    "id": "obj-59",
                    "maxclass": "newobj",
                    "numinlets": 2,
                    "numoutlets": 1,
                    "outlettype": [ "" ],
                    "patching_rect": [ 480.0, 135.0, 63.0, 22.0 ],
                    "text": "pack i 500"
                }
            },
            {
                "box": {
                    "id": "obj-57",
                    "maxclass": "newobj",
                    "numinlets": 2,
                    "numoutlets": 1,
                    "outlettype": [ "" ],
                    "patching_rect": [ 945.0, 150.0, 63.0, 22.0 ],
                    "text": "pack i 500"
                }
            },
            {
                "box": {
                    "id": "obj-58",
                    "maxclass": "newobj",
                    "numinlets": 3,
                    "numoutlets": 2,
                    "outlettype": [ "", "bang" ],
                    "patching_rect": [ 945.0, 195.0, 47.0, 22.0 ],
                    "text": "line 0 5"
                }
            },
            {
                "box": {
                    "id": "obj-55",
                    "maxclass": "newobj",
                    "numinlets": 2,
                    "numoutlets": 1,
                    "outlettype": [ "" ],
                    "patching_rect": [ 825.0, 150.0, 63.0, 22.0 ],
                    "text": "pack i 500"
                }
            },
            {
                "box": {
                    "id": "obj-56",
                    "maxclass": "newobj",
                    "numinlets": 3,
                    "numoutlets": 2,
                    "outlettype": [ "", "bang" ],
                    "patching_rect": [ 825.0, 195.0, 47.0, 22.0 ],
                    "text": "line 0 5"
                }
            },
            {
                "box": {
                    "id": "obj-52",
                    "maxclass": "newobj",
                    "numinlets": 2,
                    "numoutlets": 1,
                    "outlettype": [ "" ],
                    "patching_rect": [ 690.0, 150.0, 63.0, 22.0 ],
                    "text": "pack i 500"
                }
            },
            {
                "box": {
                    "id": "obj-54",
                    "maxclass": "newobj",
                    "numinlets": 3,
                    "numoutlets": 2,
                    "outlettype": [ "", "bang" ],
                    "patching_rect": [ 690.0, 195.0, 47.0, 22.0 ],
                    "text": "line 0 5"
                }
            },
            {
                "box": {
                    "id": "obj-47",
                    "maxclass": "newobj",
                    "numinlets": 3,
                    "numoutlets": 2,
                    "outlettype": [ "", "bang" ],
                    "patching_rect": [ 465.0, 180.0, 47.0, 22.0 ],
                    "text": "line 0 5"
                }
            },
            {
                "box": {
                    "attr": "mix",
                    "id": "obj-39",
                    "maxclass": "attrui",
                    "numinlets": 1,
                    "numoutlets": 1,
                    "outlettype": [ "" ],
                    "parameter_enable": 0,
                    "patching_rect": [ 315.0, 795.0, 150.0, 22.0 ],
                    "presentation": 1,
                    "presentation_rect": [ 450.0, 570.0, 150.0, 22.0 ]
                }
            },
            {
                "box": {
                    "id": "obj-38",
                    "maxclass": "newobj",
                    "numinlets": 7,
                    "numoutlets": 2,
                    "outlettype": [ "signal", "signal" ],
                    "patching_rect": [ 135.0, 795.0, 100.0, 22.0 ],
                    "text": "abl.dsp.darkhall~"
                }
            },
            {
                "box": {
                    "id": "obj-16",
                    "maxclass": "newobj",
                    "numinlets": 6,
                    "numoutlets": 1,
                    "outlettype": [ "" ],
                    "patching_rect": [ 1140.0, 405.0, 114.0, 22.0 ],
                    "text": "scale 0 127 -1.5 1.5"
                }
            },
            {
                "box": {
                    "id": "obj-17",
                    "maxclass": "newobj",
                    "numinlets": 6,
                    "numoutlets": 1,
                    "outlettype": [ "" ],
                    "patching_rect": [ 1020.0, 405.0, 114.0, 22.0 ],
                    "text": "scale 0 127 -1.5 1.5"
                }
            },
            {
                "box": {
                    "color": [ 1.0, 1.0, 1.0, 1.0 ],
                    "elementcolor": [ 0.7215686274509804, 0.6784313725490196, 0.6784313725490196, 1.0 ],
                    "id": "obj-18",
                    "maxclass": "pictslider",
                    "numinlets": 2,
                    "numoutlets": 2,
                    "outlettype": [ "int", "int" ],
                    "parameter_enable": 0,
                    "patching_rect": [ 1020.0, 285.0, 100.0, 100.0 ],
                    "presentation": 1,
                    "presentation_rect": [ 450.0, 285.0, 150.0, 150.0 ]
                }
            },
            {
                "box": {
                    "id": "obj-15",
                    "maxclass": "newobj",
                    "numinlets": 6,
                    "numoutlets": 1,
                    "outlettype": [ "" ],
                    "patching_rect": [ 615.0, 420.0, 114.0, 22.0 ],
                    "text": "scale 0 127 -1.5 1.5"
                }
            },
            {
                "box": {
                    "id": "obj-7",
                    "maxclass": "newobj",
                    "numinlets": 6,
                    "numoutlets": 1,
                    "outlettype": [ "" ],
                    "patching_rect": [ 495.0, 420.0, 114.0, 22.0 ],
                    "text": "scale 0 127 -1.5 1.5"
                }
            },
            {
                "box": {
                    "color": [ 1.0, 1.0, 1.0, 1.0 ],
                    "elementcolor": [ 0.7215686274509804, 0.6784313725490196, 0.6784313725490196, 1.0 ],
                    "id": "obj-4",
                    "maxclass": "pictslider",
                    "numinlets": 2,
                    "numoutlets": 2,
                    "outlettype": [ "int", "int" ],
                    "parameter_enable": 0,
                    "patching_rect": [ 495.0, 300.0, 100.0, 100.0 ],
                    "presentation": 1,
                    "presentation_rect": [ 285.0, 285.0, 150.0, 150.0 ]
                }
            },
            {
                "box": {
                    "id": "obj-103",
                    "maxclass": "message",
                    "numinlets": 2,
                    "numoutlets": 1,
                    "outlettype": [ "" ],
                    "patching_rect": [ 290.0, 193.0, 29.5, 22.0 ],
                    "text": "1"
                }
            },
            {
                "box": {
                    "format": 6,
                    "id": "obj-53",
                    "maxclass": "flonum",
                    "numinlets": 1,
                    "numoutlets": 2,
                    "outlettype": [ "", "bang" ],
                    "parameter_enable": 0,
                    "patching_rect": [ 660.0, 20.0, 50.0, 22.0 ]
                }
            },
            {
                "box": {
                    "id": "obj-51",
                    "maxclass": "toggle",
                    "numinlets": 1,
                    "numoutlets": 1,
                    "outlettype": [ "int" ],
                    "parameter_enable": 0,
                    "patching_rect": [ 553.0, 14.0, 24.0, 24.0 ]
                }
            },
            {
                "box": {
                    "id": "obj-49",
                    "maxclass": "newobj",
                    "numinlets": 2,
                    "numoutlets": 1,
                    "outlettype": [ "bang" ],
                    "patching_rect": [ 553.0, 44.0, 69.0, 22.0 ],
                    "text": "metro 1000"
                }
            },
            {
                "box": {
                    "id": "obj-45",
                    "maxclass": "number",
                    "numinlets": 1,
                    "numoutlets": 2,
                    "outlettype": [ "", "bang" ],
                    "parameter_enable": 0,
                    "patching_rect": [ 967.0, 108.0, 50.0, 22.0 ]
                }
            },
            {
                "box": {
                    "id": "obj-46",
                    "maxclass": "newobj",
                    "numinlets": 4,
                    "numoutlets": 1,
                    "outlettype": [ "int" ],
                    "patching_rect": [ 967.0, 79.0, 117.0, 22.0 ],
                    "text": "brownian 0 127 0.01"
                }
            },
            {
                "box": {
                    "id": "obj-43",
                    "maxclass": "number",
                    "numinlets": 1,
                    "numoutlets": 2,
                    "outlettype": [ "", "bang" ],
                    "parameter_enable": 0,
                    "patching_rect": [ 834.0, 108.0, 50.0, 22.0 ]
                }
            },
            {
                "box": {
                    "id": "obj-44",
                    "maxclass": "newobj",
                    "numinlets": 4,
                    "numoutlets": 1,
                    "outlettype": [ "int" ],
                    "patching_rect": [ 834.0, 79.0, 117.0, 22.0 ],
                    "text": "brownian 0 127 0.01"
                }
            },
            {
                "box": {
                    "id": "obj-41",
                    "maxclass": "number",
                    "numinlets": 1,
                    "numoutlets": 2,
                    "outlettype": [ "", "bang" ],
                    "parameter_enable": 0,
                    "patching_rect": [ 688.0, 108.0, 50.0, 22.0 ]
                }
            },
            {
                "box": {
                    "id": "obj-42",
                    "maxclass": "newobj",
                    "numinlets": 4,
                    "numoutlets": 1,
                    "outlettype": [ "int" ],
                    "patching_rect": [ 688.0, 79.0, 117.0, 22.0 ],
                    "text": "brownian 0 127 0.01"
                }
            },
            {
                "box": {
                    "id": "obj-40",
                    "maxclass": "number",
                    "numinlets": 1,
                    "numoutlets": 2,
                    "outlettype": [ "", "bang" ],
                    "parameter_enable": 0,
                    "patching_rect": [ 553.0, 108.0, 50.0, 22.0 ]
                }
            },
            {
                "box": {
                    "id": "obj-27",
                    "maxclass": "newobj",
                    "numinlets": 4,
                    "numoutlets": 1,
                    "outlettype": [ "int" ],
                    "patching_rect": [ 553.0, 79.0, 117.0, 22.0 ],
                    "text": "brownian 0 127 0.03"
                }
            },
            {
                "box": {
                    "attr": "edit_mode",
                    "id": "obj-37",
                    "maxclass": "attrui",
                    "numinlets": 1,
                    "numoutlets": 1,
                    "outlettype": [ "" ],
                    "parameter_enable": 0,
                    "patching_rect": [ 210.0, 270.0, 150.0, 22.0 ]
                }
            },
            {
                "box": {
                    "fontface": 0,
                    "id": "obj-36",
                    "maxclass": "filtergraph~",
                    "nfilters": 1,
                    "numinlets": 8,
                    "numoutlets": 7,
                    "outlettype": [ "list", "float", "float", "float", "float", "list", "int" ],
                    "parameter_enable": 0,
                    "patching_rect": [ 205.0, 316.0, 256.0, 128.0 ],
                    "presentation": 1,
                    "presentation_rect": [ 630.0, 165.0, 315.0, 105.0 ],
                    "setfilter": [ 0, 7, 1, 0, 0, 995.9279174804688, 1.4705836772918701, 0.8056039810180664, 0.0, 0.0, 0.0, 0.0, 0.0, 0.0 ]
                }
            },
            {
                "box": {
                    "id": "obj-35",
                    "maxclass": "newobj",
                    "numinlets": 6,
                    "numoutlets": 1,
                    "outlettype": [ "signal" ],
                    "patching_rect": [ 52.0, 409.0, 71.5, 22.0 ],
                    "text": "biquad~"
                }
            },
            {
                "box": {
                    "id": "obj-34",
                    "maxclass": "button",
                    "numinlets": 1,
                    "numoutlets": 1,
                    "outlettype": [ "bang" ],
                    "parameter_enable": 0,
                    "patching_rect": [ 1065.0, 195.0, 24.0, 24.0 ]
                }
            },
            {
                "box": {
                    "id": "obj-33",
                    "maxclass": "button",
                    "numinlets": 1,
                    "numoutlets": 1,
                    "outlettype": [ "bang" ],
                    "parameter_enable": 0,
                    "patching_rect": [ 537.0, 200.0, 24.0, 24.0 ]
                }
            },
            {
                "box": {
                    "id": "obj-30",
                    "maxclass": "message",
                    "numinlets": 2,
                    "numoutlets": 1,
                    "outlettype": [ "" ],
                    "patching_rect": [ 579.0, 238.0, 29.5, 22.0 ],
                    "text": "64"
                }
            },
            {
                "box": {
                    "id": "obj-31",
                    "maxclass": "message",
                    "numinlets": 2,
                    "numoutlets": 1,
                    "outlettype": [ "" ],
                    "patching_rect": [ 496.0, 238.0, 29.5, 22.0 ],
                    "text": "64"
                }
            },
            {
                "box": {
                    "id": "obj-29",
                    "maxclass": "message",
                    "numinlets": 2,
                    "numoutlets": 1,
                    "outlettype": [ "" ],
                    "patching_rect": [ 1102.0, 229.0, 29.5, 22.0 ],
                    "text": "64"
                }
            },
            {
                "box": {
                    "id": "obj-28",
                    "maxclass": "message",
                    "numinlets": 2,
                    "numoutlets": 1,
                    "outlettype": [ "" ],
                    "patching_rect": [ 1020.0, 229.0, 29.5, 22.0 ],
                    "text": "64"
                }
            },
            {
                "box": {
                    "channelcount": 1,
                    "clipheight": 108.0,
                    "data": {
                        "clips": [
                            {
                                "absolutepath": "Percussion_02_160.wav",
                                "filename": "Percussion_02_160.wav",
                                "filekind": "audiofile",
                                "id": "u035003516",
                                "loop": 1,
                                "content_state": {
                                    "loop": 1
                                }
                            }
                        ]
                    },
                    "id": "obj-5",
                    "maxclass": "playlist~",
                    "mode": "basic",
                    "numinlets": 1,
                    "numoutlets": 4,
                    "outlettype": [ "signal", "signal", "", "dictionary" ],
                    "parameter_enable": 0,
                    "patching_rect": [ 41.0, 330.0, 150.0, 30.0 ],
                    "presentation": 1,
                    "presentation_rect": [ 285.3333418369293, 165.33333826065063, 314.6666581630707, 104.66666173934937 ],
                    "quality": "basic",
                    "saved_attribute_attributes": {
                        "candicane2": {
                            "expression": ""
                        },
                        "candicane3": {
                            "expression": ""
                        },
                        "candicane4": {
                            "expression": ""
                        },
                        "candicane5": {
                            "expression": ""
                        },
                        "candicane6": {
                            "expression": ""
                        },
                        "candicane7": {
                            "expression": ""
                        },
                        "candicane8": {
                            "expression": ""
                        }
                    },
                    "waveformdisplay": 0
                }
            },
            {
                "box": {
                    "format": 6,
                    "id": "obj-19",
                    "maxclass": "flonum",
                    "numinlets": 1,
                    "numoutlets": 2,
                    "outlettype": [ "", "bang" ],
                    "parameter_enable": 0,
                    "patching_rect": [ 776.0, 570.0, 50.0, 22.0 ]
                }
            },
            {
                "box": {
                    "format": 6,
                    "id": "obj-20",
                    "maxclass": "flonum",
                    "numinlets": 1,
                    "numoutlets": 2,
                    "outlettype": [ "", "bang" ],
                    "parameter_enable": 0,
                    "patching_rect": [ 764.0, 460.0, 50.0, 22.0 ]
                }
            },
            {
                "box": {
                    "id": "obj-21",
                    "maxclass": "newobj",
                    "numinlets": 2,
                    "numoutlets": 1,
                    "outlettype": [ "signal" ],
                    "patching_rect": [ 721.0, 573.0, 29.5, 22.0 ],
                    "text": "+~"
                }
            },
            {
                "box": {
                    "id": "obj-22",
                    "maxclass": "newobj",
                    "numinlets": 2,
                    "numoutlets": 1,
                    "outlettype": [ "signal" ],
                    "patching_rect": [ 716.0, 521.0, 29.5, 22.0 ],
                    "text": "*~"
                }
            },
            {
                "box": {
                    "format": 6,
                    "id": "obj-23",
                    "maxclass": "flonum",
                    "numinlets": 1,
                    "numoutlets": 2,
                    "outlettype": [ "", "bang" ],
                    "parameter_enable": 0,
                    "patching_rect": [ 876.0, 570.0, 50.0, 22.0 ]
                }
            },
            {
                "box": {
                    "id": "obj-24",
                    "maxclass": "newobj",
                    "numinlets": 2,
                    "numoutlets": 1,
                    "outlettype": [ "signal" ],
                    "patching_rect": [ 661.0, 568.0, 29.5, 22.0 ],
                    "text": "+~"
                }
            },
            {
                "box": {
                    "format": 6,
                    "id": "obj-25",
                    "maxclass": "flonum",
                    "numinlets": 1,
                    "numoutlets": 2,
                    "outlettype": [ "", "bang" ],
                    "parameter_enable": 0,
                    "patching_rect": [ 864.0, 460.0, 50.0, 22.0 ]
                }
            },
            {
                "box": {
                    "id": "obj-26",
                    "maxclass": "newobj",
                    "numinlets": 2,
                    "numoutlets": 1,
                    "outlettype": [ "signal" ],
                    "patching_rect": [ 656.0, 516.0, 29.5, 22.0 ],
                    "text": "*~"
                }
            },
            {
                "box": {
                    "format": 6,
                    "id": "obj-13",
                    "maxclass": "flonum",
                    "numinlets": 1,
                    "numoutlets": 2,
                    "outlettype": [ "", "bang" ],
                    "parameter_enable": 0,
                    "patching_rect": [ 496.0, 561.0, 50.0, 22.0 ]
                }
            },
            {
                "box": {
                    "format": 6,
                    "id": "obj-14",
                    "maxclass": "flonum",
                    "numinlets": 1,
                    "numoutlets": 2,
                    "outlettype": [ "", "bang" ],
                    "parameter_enable": 0,
                    "patching_rect": [ 479.0, 475.0, 50.0, 22.0 ]
                }
            },
            {
                "box": {
                    "id": "obj-11",
                    "maxclass": "newobj",
                    "numinlets": 2,
                    "numoutlets": 1,
                    "outlettype": [ "signal" ],
                    "patching_rect": [ 436.0, 588.0, 29.5, 22.0 ],
                    "text": "+~"
                }
            },
            {
                "box": {
                    "id": "obj-12",
                    "maxclass": "newobj",
                    "numinlets": 2,
                    "numoutlets": 1,
                    "outlettype": [ "signal" ],
                    "patching_rect": [ 431.0, 536.0, 29.5, 22.0 ],
                    "text": "*~"
                }
            },
            {
                "box": {
                    "format": 6,
                    "id": "obj-10",
                    "maxclass": "flonum",
                    "numinlets": 1,
                    "numoutlets": 2,
                    "outlettype": [ "", "bang" ],
                    "parameter_enable": 0,
                    "patching_rect": [ 575.0, 561.0, 50.0, 22.0 ]
                }
            },
            {
                "box": {
                    "id": "obj-9",
                    "maxclass": "newobj",
                    "numinlets": 2,
                    "numoutlets": 1,
                    "outlettype": [ "signal" ],
                    "patching_rect": [ 376.0, 583.0, 29.5, 22.0 ],
                    "text": "+~"
                }
            },
            {
                "box": {
                    "format": 6,
                    "id": "obj-8",
                    "maxclass": "flonum",
                    "numinlets": 1,
                    "numoutlets": 2,
                    "outlettype": [ "", "bang" ],
                    "parameter_enable": 0,
                    "patching_rect": [ 579.0, 475.0, 50.0, 22.0 ]
                }
            },
            {
                "box": {
                    "id": "obj-6",
                    "maxclass": "newobj",
                    "numinlets": 2,
                    "numoutlets": 1,
                    "outlettype": [ "signal" ],
                    "patching_rect": [ 371.0, 531.0, 29.5, 22.0 ],
                    "text": "*~"
                }
            },
            {
                "box": {
                    "id": "obj-3",
                    "maxclass": "newobj",
                    "numinlets": 2,
                    "numoutlets": 0,
                    "patching_rect": [ 88.5, 898.0, 35.0, 22.0 ],
                    "text": "dac~"
                }
            },
            {
                "box": {
                    "id": "obj-2",
                    "maxclass": "newobj",
                    "numinlets": 8,
                    "numoutlets": 1,
                    "outlettype": [ "signal" ],
                    "patching_rect": [ 104.0, 679.0, 311.0, 22.0 ],
                    "text": "nn~ rings_6000000_steps_streaming_v3.ts decode 4096"
                }
            },
            {
                "box": {
                    "id": "obj-1",
                    "maxclass": "newobj",
                    "numinlets": 1,
                    "numoutlets": 8,
                    "outlettype": [ "signal", "signal", "signal", "signal", "signal", "signal", "signal", "signal" ],
                    "patching_rect": [ 104.0, 459.0, 311.0, 22.0 ],
                    "text": "nn~ rings_6000000_steps_streaming_v3.ts encode 4096"
                }
            }
        ],
        "lines": [
            {
                "patchline": {
                    "destination": [ "obj-12", 0 ],
                    "source": [ "obj-1", 1 ]
                }
            },
            {
                "patchline": {
                    "destination": [ "obj-2", 7 ],
                    "source": [ "obj-1", 7 ]
                }
            },
            {
                "patchline": {
                    "destination": [ "obj-2", 6 ],
                    "source": [ "obj-1", 6 ]
                }
            },
            {
                "patchline": {
                    "destination": [ "obj-2", 5 ],
                    "source": [ "obj-1", 5 ]
                }
            },
            {
                "patchline": {
                    "destination": [ "obj-2", 4 ],
                    "source": [ "obj-1", 4 ]
                }
            },
            {
                "patchline": {
                    "destination": [ "obj-22", 0 ],
                    "source": [ "obj-1", 3 ]
                }
            },
            {
                "patchline": {
                    "destination": [ "obj-26", 0 ],
                    "source": [ "obj-1", 2 ]
                }
            },
            {
                "patchline": {
                    "destination": [ "obj-6", 0 ],
                    "source": [ "obj-1", 0 ]
                }
            },
            {
                "patchline": {
                    "destination": [ "obj-9", 1 ],
                    "source": [ "obj-10", 0 ]
                }
            },
            {
                "patchline": {
                    "destination": [ "obj-104", 1 ],
                    "source": [ "obj-101", 0 ]
                }
            },
            {
                "patchline": {
                    "destination": [ "obj-105", 1 ],
                    "source": [ "obj-102", 0 ]
                }
            },
            {
                "patchline": {
                    "destination": [ "obj-5", 0 ],
                    "source": [ "obj-103", 0 ]
                }
            },
            {
                "patchline": {
                    "destination": [ "obj-119", 3 ],
                    "source": [ "obj-104", 0 ]
                }
            },
            {
                "patchline": {
                    "destination": [ "obj-104", 0 ],
                    "source": [ "obj-105", 0 ]
                }
            },
            {
                "patchline": {
                    "destination": [ "obj-107", 1 ],
                    "source": [ "obj-106", 0 ]
                }
            },
            {
                "patchline": {
                    "destination": [ "obj-119", 2 ],
                    "source": [ "obj-107", 0 ]
                }
            },
            {
                "patchline": {
                    "destination": [ "obj-109", 1 ],
                    "source": [ "obj-108", 0 ]
                }
            },
            {
                "patchline": {
                    "destination": [ "obj-107", 0 ],
                    "source": [ "obj-109", 0 ]
                }
            },
            {
                "patchline": {
                    "destination": [ "obj-2", 1 ],
                    "source": [ "obj-11", 0 ]
                }
            },
            {
                "patchline": {
                    "destination": [ "obj-112", 1 ],
                    "source": [ "obj-110", 0 ]
                }
            },
            {
                "patchline": {
                    "destination": [ "obj-113", 1 ],
                    "source": [ "obj-111", 0 ]
                }
            },
            {
                "patchline": {
                    "destination": [ "obj-119", 1 ],
                    "source": [ "obj-112", 0 ]
                }
            },
            {
                "patchline": {
                    "destination": [ "obj-112", 0 ],
                    "source": [ "obj-113", 0 ]
                }
            },
            {
                "patchline": {
                    "destination": [ "obj-115", 1 ],
                    "source": [ "obj-114", 0 ]
                }
            },
            {
                "patchline": {
                    "destination": [ "obj-119", 0 ],
                    "source": [ "obj-115", 0 ]
                }
            },
            {
                "patchline": {
                    "destination": [ "obj-117", 1 ],
                    "source": [ "obj-116", 0 ]
                }
            },
            {
                "patchline": {
                    "destination": [ "obj-115", 0 ],
                    "source": [ "obj-117", 0 ]
                }
            },
            {
                "patchline": {
                    "destination": [ "obj-122", 0 ],
                    "order": 0,
                    "source": [ "obj-119", 0 ]
                }
            },
            {
                "patchline": {
                    "destination": [ "obj-38", 1 ],
                    "order": 1,
                    "source": [ "obj-119", 0 ]
                }
            },
            {
                "patchline": {
                    "destination": [ "obj-11", 0 ],
                    "source": [ "obj-12", 0 ]
                }
            },
            {
                "patchline": {
                    "destination": [ "obj-105", 0 ],
                    "source": [ "obj-120", 3 ]
                }
            },
            {
                "patchline": {
                    "destination": [ "obj-109", 0 ],
                    "source": [ "obj-120", 2 ]
                }
            },
            {
                "patchline": {
                    "destination": [ "obj-113", 0 ],
                    "source": [ "obj-120", 1 ]
                }
            },
            {
                "patchline": {
                    "destination": [ "obj-117", 0 ],
                    "source": [ "obj-120", 0 ]
                }
            },
            {
                "patchline": {
                    "destination": [ "obj-119", 7 ],
                    "source": [ "obj-120", 7 ]
                }
            },
            {
                "patchline": {
                    "destination": [ "obj-119", 6 ],
                    "source": [ "obj-120", 6 ]
                }
            },
            {
                "patchline": {
                    "destination": [ "obj-119", 5 ],
                    "source": [ "obj-120", 5 ]
                }
            },
            {
                "patchline": {
                    "destination": [ "obj-119", 4 ],
                    "source": [ "obj-120", 4 ]
                }
            },
            {
                "patchline": {
                    "destination": [ "obj-38", 0 ],
                    "source": [ "obj-123", 0 ]
                }
            },
            {
                "patchline": {
                    "destination": [ "obj-38", 0 ],
                    "source": [ "obj-124", 0 ]
                }
            },
            {
                "patchline": {
                    "destination": [ "obj-38", 0 ],
                    "source": [ "obj-126", 0 ]
                }
            },
            {
                "patchline": {
                    "destination": [ "obj-11", 1 ],
                    "source": [ "obj-13", 0 ]
                }
            },
            {
                "patchline": {
                    "destination": [ "obj-12", 1 ],
                    "source": [ "obj-14", 0 ]
                }
            },
            {
                "patchline": {
                    "destination": [ "obj-10", 0 ],
                    "source": [ "obj-15", 0 ]
                }
            },
            {
                "patchline": {
                    "destination": [ "obj-23", 0 ],
                    "source": [ "obj-16", 0 ]
                }
            },
            {
                "patchline": {
                    "destination": [ "obj-19", 0 ],
                    "source": [ "obj-17", 0 ]
                }
            },
            {
                "patchline": {
                    "destination": [ "obj-16", 0 ],
                    "source": [ "obj-18", 1 ]
                }
            },
            {
                "patchline": {
                    "destination": [ "obj-17", 0 ],
                    "source": [ "obj-18", 0 ]
                }
            },
            {
                "patchline": {
                    "destination": [ "obj-21", 1 ],
                    "source": [ "obj-19", 0 ]
                }
            },
            {
                "patchline": {
                    "destination": [ "obj-121", 0 ],
                    "order": 0,
                    "source": [ "obj-2", 0 ]
                }
            },
            {
                "patchline": {
                    "destination": [ "obj-38", 0 ],
                    "order": 1,
                    "source": [ "obj-2", 0 ]
                }
            },
            {
                "patchline": {
                    "destination": [ "obj-22", 1 ],
                    "source": [ "obj-20", 0 ]
                }
            },
            {
                "patchline": {
                    "destination": [ "obj-2", 3 ],
                    "source": [ "obj-21", 0 ]
                }
            },
            {
                "patchline": {
                    "destination": [ "obj-21", 0 ],
                    "source": [ "obj-22", 0 ]
                }
            },
            {
                "patchline": {
                    "destination": [ "obj-24", 1 ],
                    "source": [ "obj-23", 0 ]
                }
            },
            {
                "patchline": {
                    "destination": [ "obj-2", 2 ],
                    "source": [ "obj-24", 0 ]
                }
            },
            {
                "patchline": {
                    "destination": [ "obj-26", 1 ],
                    "source": [ "obj-25", 0 ]
                }
            },
            {
                "patchline": {
                    "destination": [ "obj-24", 0 ],
                    "source": [ "obj-26", 0 ]
                }
            },
            {
                "patchline": {
                    "destination": [ "obj-40", 0 ],
                    "source": [ "obj-27", 0 ]
                }
            },
            {
                "patchline": {
                    "destination": [ "obj-18", 0 ],
                    "source": [ "obj-28", 0 ]
                }
            },
            {
                "patchline": {
                    "destination": [ "obj-18", 1 ],
                    "source": [ "obj-29", 0 ]
                }
            },
            {
                "patchline": {
                    "destination": [ "obj-4", 1 ],
                    "source": [ "obj-30", 0 ]
                }
            },
            {
                "patchline": {
                    "destination": [ "obj-4", 0 ],
                    "source": [ "obj-31", 0 ]
                }
            },
            {
                "patchline": {
                    "destination": [ "obj-30", 0 ],
                    "order": 0,
                    "source": [ "obj-33", 0 ]
                }
            },
            {
                "patchline": {
                    "destination": [ "obj-31", 0 ],
                    "order": 1,
                    "source": [ "obj-33", 0 ]
                }
            },
            {
                "patchline": {
                    "destination": [ "obj-28", 0 ],
                    "order": 1,
                    "source": [ "obj-34", 0 ]
                }
            },
            {
                "patchline": {
                    "destination": [ "obj-29", 0 ],
                    "order": 0,
                    "source": [ "obj-34", 0 ]
                }
            },
            {
                "patchline": {
                    "destination": [ "obj-1", 0 ],
                    "order": 1,
                    "source": [ "obj-35", 0 ]
                }
            },
            {
                "patchline": {
                    "destination": [ "obj-120", 0 ],
                    "order": 0,
                    "source": [ "obj-35", 0 ]
                }
            },
            {
                "patchline": {
                    "destination": [ "obj-35", 0 ],
                    "source": [ "obj-36", 0 ]
                }
            },
            {
                "patchline": {
                    "destination": [ "obj-36", 0 ],
                    "source": [ "obj-37", 0 ]
                }
            },
            {
                "patchline": {
                    "destination": [ "obj-3", 1 ],
                    "source": [ "obj-38", 1 ]
                }
            },
            {
                "patchline": {
                    "destination": [ "obj-3", 0 ],
                    "source": [ "obj-38", 0 ]
                }
            },
            {
                "patchline": {
                    "destination": [ "obj-38", 0 ],
                    "source": [ "obj-39", 0 ]
                }
            },
            {
                "patchline": {
                    "destination": [ "obj-15", 0 ],
                    "source": [ "obj-4", 1 ]
                }
            },
            {
                "patchline": {
                    "destination": [ "obj-7", 0 ],
                    "source": [ "obj-4", 0 ]
                }
            },
            {
                "patchline": {
                    "destination": [ "obj-59", 0 ],
                    "source": [ "obj-40", 0 ]
                }
            },
            {
                "patchline": {
                    "destination": [ "obj-52", 0 ],
                    "source": [ "obj-41", 0 ]
                }
            },
            {
                "patchline": {
                    "destination": [ "obj-41", 0 ],
                    "source": [ "obj-42", 0 ]
                }
            },
            {
                "patchline": {
                    "destination": [ "obj-55", 0 ],
                    "source": [ "obj-43", 0 ]
                }
            },
            {
                "patchline": {
                    "destination": [ "obj-43", 0 ],
                    "source": [ "obj-44", 0 ]
                }
            },
            {
                "patchline": {
                    "destination": [ "obj-57", 0 ],
                    "source": [ "obj-45", 0 ]
                }
            },
            {
                "patchline": {
                    "destination": [ "obj-45", 0 ],
                    "source": [ "obj-46", 0 ]
                }
            },
            {
                "patchline": {
                    "destination": [ "obj-4", 0 ],
                    "source": [ "obj-47", 0 ]
                }
            },
            {
                "patchline": {
                    "destination": [ "obj-27", 0 ],
                    "order": 7,
                    "source": [ "obj-49", 0 ]
                }
            },
            {
                "patchline": {
                    "destination": [ "obj-42", 0 ],
                    "order": 6,
                    "source": [ "obj-49", 0 ]
                }
            },
            {
                "patchline": {
                    "destination": [ "obj-44", 0 ],
                    "order": 5,
                    "source": [ "obj-49", 0 ]
                }
            },
            {
                "patchline": {
                    "destination": [ "obj-46", 0 ],
                    "order": 4,
                    "source": [ "obj-49", 0 ]
                }
            },
            {
                "patchline": {
                    "destination": [ "obj-84", 0 ],
                    "order": 0,
                    "source": [ "obj-49", 0 ]
                }
            },
            {
                "patchline": {
                    "destination": [ "obj-86", 0 ],
                    "order": 1,
                    "source": [ "obj-49", 0 ]
                }
            },
            {
                "patchline": {
                    "destination": [ "obj-88", 0 ],
                    "order": 2,
                    "source": [ "obj-49", 0 ]
                }
            },
            {
                "patchline": {
                    "destination": [ "obj-90", 0 ],
                    "order": 3,
                    "source": [ "obj-49", 0 ]
                }
            },
            {
                "patchline": {
                    "destination": [ "obj-35", 0 ],
                    "source": [ "obj-5", 0 ]
                }
            },
            {
                "patchline": {
                    "destination": [ "obj-49", 0 ],
                    "source": [ "obj-51", 0 ]
                }
            },
            {
                "patchline": {
                    "destination": [ "obj-54", 0 ],
                    "source": [ "obj-52", 0 ]
                }
            },
            {
                "patchline": {
                    "destination": [ "obj-27", 3 ],
                    "order": 7,
                    "source": [ "obj-53", 0 ]
                }
            },
            {
                "patchline": {
                    "destination": [ "obj-42", 3 ],
                    "order": 6,
                    "source": [ "obj-53", 0 ]
                }
            },
            {
                "patchline": {
                    "destination": [ "obj-44", 3 ],
                    "order": 5,
                    "source": [ "obj-53", 0 ]
                }
            },
            {
                "patchline": {
                    "destination": [ "obj-46", 3 ],
                    "order": 4,
                    "source": [ "obj-53", 0 ]
                }
            },
            {
                "patchline": {
                    "destination": [ "obj-84", 3 ],
                    "order": 0,
                    "source": [ "obj-53", 0 ]
                }
            },
            {
                "patchline": {
                    "destination": [ "obj-86", 3 ],
                    "order": 1,
                    "source": [ "obj-53", 0 ]
                }
            },
            {
                "patchline": {
                    "destination": [ "obj-88", 3 ],
                    "order": 2,
                    "source": [ "obj-53", 0 ]
                }
            },
            {
                "patchline": {
                    "destination": [ "obj-90", 3 ],
                    "order": 3,
                    "source": [ "obj-53", 0 ]
                }
            },
            {
                "patchline": {
                    "destination": [ "obj-4", 1 ],
                    "source": [ "obj-54", 0 ]
                }
            },
            {
                "patchline": {
                    "destination": [ "obj-56", 0 ],
                    "source": [ "obj-55", 0 ]
                }
            },
            {
                "patchline": {
                    "destination": [ "obj-18", 0 ],
                    "source": [ "obj-56", 0 ]
                }
            },
            {
                "patchline": {
                    "destination": [ "obj-58", 0 ],
                    "source": [ "obj-57", 0 ]
                }
            },
            {
                "patchline": {
                    "destination": [ "obj-18", 1 ],
                    "source": [ "obj-58", 0 ]
                }
            },
            {
                "patchline": {
                    "destination": [ "obj-47", 0 ],
                    "source": [ "obj-59", 0 ]
                }
            },
            {
                "patchline": {
                    "destination": [ "obj-9", 0 ],
                    "source": [ "obj-6", 0 ]
                }
            },
            {
                "patchline": {
                    "destination": [ "obj-52", 1 ],
                    "order": 3,
                    "source": [ "obj-61", 0 ]
                }
            },
            {
                "patchline": {
                    "destination": [ "obj-55", 1 ],
                    "order": 2,
                    "source": [ "obj-61", 0 ]
                }
            },
            {
                "patchline": {
                    "destination": [ "obj-57", 1 ],
                    "order": 1,
                    "source": [ "obj-61", 0 ]
                }
            },
            {
                "patchline": {
                    "destination": [ "obj-59", 1 ],
                    "order": 4,
                    "source": [ "obj-61", 0 ]
                }
            },
            {
                "patchline": {
                    "destination": [ "obj-62", 0 ],
                    "order": 0,
                    "source": [ "obj-61", 0 ]
                }
            },
            {
                "patchline": {
                    "destination": [ "obj-63", 1 ],
                    "order": 3,
                    "source": [ "obj-62", 0 ]
                }
            },
            {
                "patchline": {
                    "destination": [ "obj-64", 1 ],
                    "order": 0,
                    "source": [ "obj-62", 0 ]
                }
            },
            {
                "patchline": {
                    "destination": [ "obj-66", 1 ],
                    "order": 1,
                    "source": [ "obj-62", 0 ]
                }
            },
            {
                "patchline": {
                    "destination": [ "obj-68", 1 ],
                    "order": 2,
                    "source": [ "obj-62", 0 ]
                }
            },
            {
                "patchline": {
                    "destination": [ "obj-70", 0 ],
                    "source": [ "obj-63", 0 ]
                }
            },
            {
                "patchline": {
                    "destination": [ "obj-65", 0 ],
                    "source": [ "obj-64", 0 ]
                }
            },
            {
                "patchline": {
                    "destination": [ "obj-75", 1 ],
                    "source": [ "obj-65", 0 ]
                }
            },
            {
                "patchline": {
                    "destination": [ "obj-67", 0 ],
                    "source": [ "obj-66", 0 ]
                }
            },
            {
                "patchline": {
                    "destination": [ "obj-75", 0 ],
                    "source": [ "obj-67", 0 ]
                }
            },
            {
                "patchline": {
                    "destination": [ "obj-69", 0 ],
                    "source": [ "obj-68", 0 ]
                }
            },
            {
                "patchline": {
                    "destination": [ "obj-78", 1 ],
                    "source": [ "obj-69", 0 ]
                }
            },
            {
                "patchline": {
                    "destination": [ "obj-13", 0 ],
                    "source": [ "obj-7", 0 ]
                }
            },
            {
                "patchline": {
                    "destination": [ "obj-78", 0 ],
                    "source": [ "obj-70", 0 ]
                }
            },
            {
                "patchline": {
                    "destination": [ "obj-106", 0 ],
                    "source": [ "obj-73", 0 ]
                }
            },
            {
                "patchline": {
                    "destination": [ "obj-101", 0 ],
                    "source": [ "obj-74", 0 ]
                }
            },
            {
                "patchline": {
                    "destination": [ "obj-73", 0 ],
                    "source": [ "obj-75", 1 ]
                }
            },
            {
                "patchline": {
                    "destination": [ "obj-74", 0 ],
                    "source": [ "obj-75", 0 ]
                }
            },
            {
                "patchline": {
                    "destination": [ "obj-114", 0 ],
                    "source": [ "obj-76", 0 ]
                }
            },
            {
                "patchline": {
                    "destination": [ "obj-110", 0 ],
                    "source": [ "obj-77", 0 ]
                }
            },
            {
                "patchline": {
                    "destination": [ "obj-76", 0 ],
                    "source": [ "obj-78", 1 ]
                }
            },
            {
                "patchline": {
                    "destination": [ "obj-77", 0 ],
                    "source": [ "obj-78", 0 ]
                }
            },
            {
                "patchline": {
                    "destination": [ "obj-6", 1 ],
                    "source": [ "obj-8", 0 ]
                }
            },
            {
                "patchline": {
                    "destination": [ "obj-64", 0 ],
                    "source": [ "obj-83", 0 ]
                }
            },
            {
                "patchline": {
                    "destination": [ "obj-83", 0 ],
                    "source": [ "obj-84", 0 ]
                }
            },
            {
                "patchline": {
                    "destination": [ "obj-66", 0 ],
                    "source": [ "obj-85", 0 ]
                }
            },
            {
                "patchline": {
                    "destination": [ "obj-85", 0 ],
                    "source": [ "obj-86", 0 ]
                }
            },
            {
                "patchline": {
                    "destination": [ "obj-68", 0 ],
                    "source": [ "obj-87", 0 ]
                }
            },
            {
                "patchline": {
                    "destination": [ "obj-87", 0 ],
                    "source": [ "obj-88", 0 ]
                }
            },
            {
                "patchline": {
                    "destination": [ "obj-63", 0 ],
                    "source": [ "obj-89", 0 ]
                }
            },
            {
                "patchline": {
                    "destination": [ "obj-2", 0 ],
                    "source": [ "obj-9", 0 ]
                }
            },
            {
                "patchline": {
                    "destination": [ "obj-89", 0 ],
                    "source": [ "obj-90", 0 ]
                }
            },
            {
                "patchline": {
                    "destination": [ "obj-98", 0 ],
                    "order": 0,
                    "source": [ "obj-94", 0 ]
                }
            },
            {
                "patchline": {
                    "destination": [ "obj-99", 0 ],
                    "order": 1,
                    "source": [ "obj-94", 0 ]
                }
            },
            {
                "patchline": {
                    "destination": [ "obj-96", 0 ],
                    "order": 0,
                    "source": [ "obj-95", 0 ]
                }
            },
            {
                "patchline": {
                    "destination": [ "obj-97", 0 ],
                    "order": 1,
                    "source": [ "obj-95", 0 ]
                }
            },
            {
                "patchline": {
                    "destination": [ "obj-78", 1 ],
                    "source": [ "obj-96", 0 ]
                }
            },
            {
                "patchline": {
                    "destination": [ "obj-78", 0 ],
                    "source": [ "obj-97", 0 ]
                }
            },
            {
                "patchline": {
                    "destination": [ "obj-75", 1 ],
                    "source": [ "obj-98", 0 ]
                }
            },
            {
                "patchline": {
                    "destination": [ "obj-75", 0 ],
                    "source": [ "obj-99", 0 ]
                }
            }
        ],
        "autosave": 0
    }
}