{
	"patcher" : 	{
		"fileversion" : 1,
		"appversion" : 		{
			"major" : 9,
			"minor" : 0,
			"revision" : 0,
			"architecture" : "x64",
			"modernui" : 1
		}
,
		"classnamespace" : "box",
		"rect" : [ 59.0, 118.0, 1000.0, 698.0 ],
		"gridsize" : [ 15.0, 15.0 ],
		"boxes" : [ 			{
				"box" : 				{
					"id" : "obj-21",
					"linecount" : 5,
					"maxclass" : "comment",
					"numinlets" : 1,
					"numoutlets" : 0,
					"patching_rect" : [ 30.0, 30.0, 740.0, 74.0 ],
					"text" : "Initial prompt\n\nhello chat! Can you create v8 code in Max 9 that will do the following: take an input chromatic note, quantise it to a user-determined scale with a user-determined root note and then add 2 pitches on top of the original pitch to create chords that fit within that scale. The user should be able to also set chord inversions. "
				}

			}
, 			{
				"box" : 				{
					"id" : "obj-19",
					"maxclass" : "comment",
					"numinlets" : 1,
					"numoutlets" : 0,
					"patching_rect" : [ 675.0, 120.0, 39.0, 20.0 ],
					"text" : "minor"
				}

			}
, 			{
				"box" : 				{
					"id" : "obj-18",
					"maxclass" : "comment",
					"numinlets" : 1,
					"numoutlets" : 0,
					"patching_rect" : [ 555.0, 120.0, 39.0, 20.0 ],
					"text" : "major"
				}

			}
, 			{
				"box" : 				{
					"id" : "obj-17",
					"maxclass" : "message",
					"numinlets" : 2,
					"numoutlets" : 1,
					"outlettype" : [ "" ],
					"patching_rect" : [ 675.0, 150.0, 82.0, 22.0 ],
					"presentation_linecount" : 2,
					"text" : "0 2 3 5 7 8 10"
				}

			}
, 			{
				"box" : 				{
					"id" : "obj-16",
					"maxclass" : "message",
					"numinlets" : 2,
					"numoutlets" : 1,
					"outlettype" : [ "" ],
					"patching_rect" : [ 555.0, 150.0, 81.0, 22.0 ],
					"text" : "0 2 4 5 7 9 11"
				}

			}
, 			{
				"box" : 				{
					"id" : "obj-14",
					"maxclass" : "comment",
					"numinlets" : 1,
					"numoutlets" : 0,
					"patching_rect" : [ 30.0, 120.0, 62.0, 20.0 ],
					"presentation_linecount" : 3,
					"text" : "input note"
				}

			}
, 			{
				"box" : 				{
					"id" : "obj-13",
					"maxclass" : "comment",
					"numinlets" : 1,
					"numoutlets" : 0,
					"patching_rect" : [ 60.0, 600.0, 103.0, 20.0 ],
					"text" : "split list into notes"
				}

			}
, 			{
				"box" : 				{
					"id" : "obj-11",
					"maxclass" : "comment",
					"numinlets" : 1,
					"numoutlets" : 0,
					"patching_rect" : [ 375.0, 120.0, 34.0, 20.0 ],
					"text" : "root"
				}

			}
, 			{
				"box" : 				{
					"id" : "obj-10",
					"maxclass" : "comment",
					"numinlets" : 1,
					"numoutlets" : 0,
					"patching_rect" : [ 435.0, 120.0, 57.0, 20.0 ],
					"text" : "inversion"
				}

			}
, 			{
				"box" : 				{
					"id" : "obj-8",
					"maxclass" : "number",
					"maximum" : 11,
					"minimum" : 0,
					"numinlets" : 1,
					"numoutlets" : 2,
					"outlettype" : [ "", "bang" ],
					"parameter_enable" : 0,
					"patching_rect" : [ 375.0, 150.0, 50.0, 22.0 ]
				}

			}
, 			{
				"box" : 				{
					"id" : "obj-7",
					"maxclass" : "number",
					"maximum" : 2,
					"minimum" : 0,
					"numinlets" : 1,
					"numoutlets" : 2,
					"outlettype" : [ "", "bang" ],
					"parameter_enable" : 0,
					"patching_rect" : [ 435.0, 150.0, 50.0, 22.0 ]
				}

			}
, 			{
				"box" : 				{
					"id" : "obj-5",
					"maxclass" : "newobj",
					"numinlets" : 1,
					"numoutlets" : 1,
					"outlettype" : [ "" ],
					"patching_rect" : [ 30.0, 600.0, 25.0, 22.0 ],
					"text" : "iter"
				}

			}
, 			{
				"box" : 				{
					"id" : "obj-4",
					"maxclass" : "newobj",
					"numinlets" : 3,
					"numoutlets" : 0,
					"patching_rect" : [ 30.0, 660.0, 49.0, 22.0 ],
					"text" : "noteout"
				}

			}
, 			{
				"box" : 				{
					"id" : "obj-3",
					"maxclass" : "kslider",
					"numinlets" : 2,
					"numoutlets" : 2,
					"outlettype" : [ "int", "int" ],
					"parameter_enable" : 0,
					"patching_rect" : [ 30.0, 150.0, 336.0, 53.0 ]
				}

			}
, 			{
				"box" : 				{
					"id" : "obj-2",
					"maxclass" : "newobj",
					"numinlets" : 3,
					"numoutlets" : 2,
					"outlettype" : [ "float", "float" ],
					"patching_rect" : [ 30.0, 630.0, 108.0, 22.0 ],
					"text" : "makenote 100 100"
				}

			}
, 			{
				"box" : 				{
					"code" : "inlets = 4;\noutlets = 1;\n\n// parameters\nvar scale = [0, 2, 4, 5, 7, 9, 11]; // default to major scale\nvar root = 0;\nvar inversion = 0;\n\n// quantize input to nearest note in scale\nfunction quantize(note) {\n    var rel_note = (note - root + 120) % 12;\n    var closest = scale[0];\n    var min_dist = 12;\n    for (var i = 0; i < scale.length; i++) {\n        var dist = Math.abs(rel_note - scale[i]);\n        if (dist < min_dist) {\n            min_dist = dist;\n            closest = scale[i];\n        }\n    }\n    return note - rel_note + closest;\n}\n\n// find degree of quantized note within scale\nfunction find_degree(note) {\n    var rel_note = (note - root + 120) % 12;\n    for (var i = 0; i < scale.length; i++) {\n        if (scale[i] == rel_note) {\n            return i;\n        }\n    }\n    return 0; // fallback\n}\n\n// get pitch from degree and octave\nfunction get_pitch(base_octave, degree) {\n    var scalenotes = scale.length;\n    var idx = degree % scalenotes;\n    var oct_shift = Math.floor(degree / scalenotes);\n    return root + scale[idx] + (base_octave + oct_shift) * 12;\n}\n\n// process incoming note\nfunction msg_int(v) {\n    if (inlet == 0) {\n        var base_note = quantize(v);\n        var base_octave = Math.floor(base_note / 12);\n        var base_degree = find_degree(base_note);\n\n        var chord = [];\n        chord.push(base_note);\n\n        // add 2 notes by moving up scale\n        for (var i = 1; i <= 2; i++) {\n            var new_degree = base_degree + i * 2; // stacking diatonic thirds\n            var new_note = get_pitch(base_octave, new_degree);\n            if (new_note <= chord[chord.length - 1]) {\n                new_note += 12; // keep ascending\n            }\n            chord.push(new_note);\n        }\n\n        // apply inversion\n        for (var i = 0; i < inversion; i++) {\n            var inv = chord.shift();\n            chord.push(inv + 12);\n        }\n\n        outlet(0, chord);\n    } else if (inlet == 1) {\n        root = v;\n    } else if (inlet == 2) {\n        inversion = v;\n    }\n}\n\n// set scale via list\nfunction list() {\n    if (inlet == 3) {\n        scale = arrayfromargs(arguments);\n    }\n}\n",
					"filename" : "none",
					"fontface" : 0,
					"fontname" : "<Monospaced>",
					"fontsize" : 12.0,
					"id" : "obj-1",
					"maxclass" : "v8.codebox",
					"numinlets" : 4,
					"numoutlets" : 1,
					"outlettype" : [ "" ],
					"patching_rect" : [ 30.0, 240.0, 633.0, 342.0 ],
					"saved_object_attributes" : 					{
						"parameter_enable" : 0
					}

				}

			}
 ],
		"lines" : [ 			{
				"patchline" : 				{
					"destination" : [ "obj-5", 0 ],
					"source" : [ "obj-1", 0 ]
				}

			}
, 			{
				"patchline" : 				{
					"destination" : [ "obj-1", 3 ],
					"source" : [ "obj-16", 0 ]
				}

			}
, 			{
				"patchline" : 				{
					"destination" : [ "obj-1", 3 ],
					"source" : [ "obj-17", 0 ]
				}

			}
, 			{
				"patchline" : 				{
					"destination" : [ "obj-4", 1 ],
					"source" : [ "obj-2", 1 ]
				}

			}
, 			{
				"patchline" : 				{
					"destination" : [ "obj-4", 0 ],
					"source" : [ "obj-2", 0 ]
				}

			}
, 			{
				"patchline" : 				{
					"destination" : [ "obj-1", 0 ],
					"source" : [ "obj-3", 0 ]
				}

			}
, 			{
				"patchline" : 				{
					"destination" : [ "obj-2", 0 ],
					"source" : [ "obj-5", 0 ]
				}

			}
, 			{
				"patchline" : 				{
					"destination" : [ "obj-1", 2 ],
					"midpoints" : [ 444.5, 206.0, 448.833333333333314, 206.0 ],
					"source" : [ "obj-7", 0 ]
				}

			}
, 			{
				"patchline" : 				{
					"destination" : [ "obj-1", 1 ],
					"midpoints" : [ 384.5, 206.0, 244.166666666666657, 206.0 ],
					"source" : [ "obj-8", 0 ]
				}

			}
 ],
		"originid" : "pat-3",
		"dependency_cache" : [  ],
		"autosave" : 0
	}

}
